#!OML:ASF H:\Terrain\Patient Classification 1\Terrain2\Thursday\justin.ASF
:FULLY-SPECIFIED
:DEGREES
1894
root 7.4259 17.3485 21.773 -422.335 -88.0521 62.9336
lowerback 8.13669 -0.0518672 -4.46298
upperback 4.21411 -0.494995 2.93257
thorax -0.123067 -0.406415 5.60677
lowerneck -10.0379 -2.34619 -10.4214
upperneck 40.1852 -4.65265 3.77367
head 16.4732 -3.69388 2.58104
rclavicle 2.5842e-015 2.62396e-014
rhumerus -29.7012 -13.3909 -75.8992
rradius 29.3497
rwrist -10.3514
rhand -19.1502 9.40478
rfingers 7.12502
rthumb 7.1602 -20.4541
lclavicle 2.5842e-015 2.62396e-014
lhumerus -35.035 15.9555 69.1124
lradius 39.953
lwrist 13.4192
lhand -22.3437 24.2642
lfingers 7.12502
lthumb 4.07692 -305.795
rfemur -28.7288 2.11998 14.6212
rtibia 38.5105
rfoot -7.41608 6.42657
rtoes 63.4268
lfemur -4.65701 357.319 -22.3559
ltibia 31.4354
lfoot -22.3117 -6.59592
ltoes 14.6937
1895
root 7.38834 17.3532 21.7807 -428.168 -87.9135 68.8652
lowerback 8.11218 -0.0809008 -4.69388
upperback 4.1998 -0.547587 2.85868
thorax -0.114881 -0.434513 5.66499
lowerneck -10.1734 -2.32841 -10.3902
upperneck 40.2796 -4.64629 3.80717
head 16.5568 -3.68635 2.59029
rclavicle -1.2921e-014 2.22639e-014
rhumerus -30.0727 -13.7683 -75.7627
rradius 29.1001
rwrist -10.2753
rhand -19.5362 9.39797
rfingers 7.12502
rthumb 6.78754 -20.4732
lclavicle -1.2921e-014 2.22639e-014
lhumerus -34.7739 15.4667 69.5038
lradius 39.9816
lwrist 13.5039
lhand -22.0143 24.119
lfingers 7.12502
lthumb 4.395 -305.947
rfemur -29.0659 1.49779 14.5445
rtibia 38.4676
rfoot -7.66941 6.99025
rtoes 63.4977
lfemur -4.42206 357.308 -22.6435
ltibia 31.0558
lfoot -22.1888 -6.46102
ltoes 15.2306
1896
root 7.35193 17.3566 21.7875 -431.473 -87.8375 72.1491
lowerback 8.16931 -0.202366 -4.85971
upperback 4.2456 -0.726067 2.91003
thorax -0.0707592 -0.531229 5.82889
lowerneck -10.287 -2.26366 -10.8522
upperneck 40.2812 -4.47876 3.98586
head 16.5924 -3.6644 2.77971
rclavicle -3.37934e-015 -8.74653e-015
rhumerus -30.1491 -14.0527 -75.5254
rradius 28.3989
rwrist -10.1963
rhand -19.3349 10.008
rfingers 7.12502
rthumb 6.9819 -19.8568
lclavicle -3.37934e-015 -8.74653e-015
lhumerus -34.6892 15.4094 69.9027
lradius 40.0729
lwrist 13.3809
lhand -21.4874 23.8644
lfingers 7.12502
lthumb 4.90377 -306.212
rfemur -29.2234 0.97971 14.5715
rtibia 38.3494
rfoot -7.63877 7.642
rtoes 63.2753
lfemur -4.05664 357.322 -22.7986
ltibia 30.6744
lfoot -22.1196 -6.44255
ltoes 15.6245
1897
root 7.30828 17.3634 21.7881 -428.598 -88.3507 69.1683
lowerback 8.29137 -0.286114 -4.43999
upperback 4.2842 -0.817579 3.09506
thorax -0.0905441 -0.576111 5.79288
lowerneck -10.3386 -2.22857 -11.0487
upperneck 40.2488 -4.43743 4.17271
head 16.5954 -3.65229 2.90485
rclavicle -1.39149e-015 6.36111e-015
rhumerus -30.3569 -14.5394 -75.2934
rradius 27.6954
rwrist -9.64838
rhand -19.4312 10.3523
rfingers 7.12502
rthumb 6.88894 -19.5156
lclavicle -1.39149e-015 6.36111e-015
lhumerus -34.6026 14.9463 70.306
lradius 40.1131
lwrist 13.379
lhand -21.0163 23.5478
lfingers 7.12502
lthumb 5.35865 -306.54
rfemur -29.2221 0.597821 15.3147
rtibia 38.1794
rfoot -7.51104 8.23168
rtoes 63.014
lfemur -3.59263 357.357 -22.2293
ltibia 30.2712
lfoot -22.2704 -6.24804
ltoes 14.4797
1898
root 7.25799 17.3701 21.7841 -424.27 -88.8485 64.8138
lowerback 8.26693 -0.40653 -4.0867
upperback 4.33314 -0.956591 3.21265
thorax -0.0130972 -0.647412 5.72448
lowerneck -10.4378 -2.14333 -10.7843
upperneck 40.2444 -4.33801 4.09439
head 16.5921 -3.58182 2.83762
rclavicle -1.74931e-014 2.22639e-014
rhumerus -30.5727 -14.6329 -75.3415
rradius 27.2292
rwrist -9.3459
rhand -19.638 10.259
rfingers 7.12502
rthumb 6.68929 -19.6153
lclavicle -1.74931e-014 2.22639e-014
lhumerus -34.5224 14.2423 70.6328
lradius 40.219
lwrist 13.7169
lhand -20.8644 23.1604
lfingers 7.12502
lthumb 5.50527 -306.931
rfemur -29.2882 0.281796 16.0373
rtibia 38.0132
rfoot -7.86585 8.55504
rtoes 62.8574
lfemur -3.15487 357.491 -21.6586
ltibia 29.8037
lfoot -22.2851 -6.37691
ltoes 14.7281
1899
root 7.21448 17.3757 21.779 -432.289 -88.5711 72.941
lowerback 8.1913 -0.562838 -4.59516
upperback 4.32913 -1.19633 3.15828
thorax 0.0681326 -0.776818 5.97538
lowerneck -10.4232 -2.03052 -10.6684
upperneck 40.1101 -4.11478 3.91502
head 16.481 -3.49117 2.77167
rclavicle 1.41137e-014 -1.59028e-014
rhumerus -30.7026 -14.5195 -75.3586
rradius 26.8153
rwrist -9.42913
rhand -19.3847 10.1602
rfingers 7.12502
rthumb 6.93379 -19.7062
lclavicle 1.41137e-014 -1.59028e-014
lhumerus -34.5251 13.8344 70.9679
lradius 40.3706
lwrist 13.8588
lhand -20.9296 22.9142
lfingers 7.12502
lthumb 5.4423 -307.176
rfemur -29.5466 -0.0113396 15.8258
rtibia 37.8454
rfoot -8.37229 8.48907
rtoes 62.5501
lfemur -2.85734 357.694 -21.9875
ltibia 29.2795
lfoot -21.7159 -7.00274
ltoes 17.0294
